<svg width="56" height="72" viewBox="0 0 56 72" fill="none" xmlns="http://www.w3.org/2000/svg">
<rect width="56" height="72" fill="#FDEDF1"/>
<path d="M16 28C16 27.7348 16.1054 27.4804 16.2929 27.2929C16.4804 27.1054 16.7348 27 17 27H39C39.2652 27 39.5196 27.1054 39.7071 27.2929C39.8946 27.4804 40 27.7348 40 28C40 28.2652 39.8946 28.5196 39.7071 28.7071C39.5196 28.8946 39.2652 29 39 29H17C16.7348 29 16.4804 28.8946 16.2929 28.7071C16.1054 28.5196 16 28.2652 16 28ZM29 35H17C16.7348 35 16.4804 35.1054 16.2929 35.2929C16.1054 35.4804 16 35.7348 16 36C16 36.2652 16.1054 36.5196 16.2929 36.7071C16.4804 36.8946 16.7348 37 17 37H29C29.2652 37 29.5196 36.8946 29.7071 36.7071C29.8946 36.5196 30 36.2652 30 36C30 35.7348 29.8946 35.4804 29.7071 35.2929C29.5196 35.1054 29.2652 35 29 35ZM29 43H17C16.7348 43 16.4804 43.1054 16.2929 43.2929C16.1054 43.4804 16 43.7348 16 44C16 44.2652 16.1054 44.5196 16.2929 44.7071C16.4804 44.8946 16.7348 45 17 45H29C29.2652 45 29.5196 44.8946 29.7071 44.7071C29.8946 44.5196 30 44.2652 30 44C30 43.7348 29.8946 43.4804 29.7071 43.2929C29.5196 43.1054 29.2652 43 29 43Z" fill="#737373"/>
<path d="M39.47 45.8475L31.47 40.8475C31.3264 40.7576 31.208 40.6326 31.1259 40.4844C31.0439 40.3361 31.0008 40.1695 31.0008 40C31.0008 39.8306 31.0439 39.6639 31.1259 39.5156C31.208 39.3674 31.3264 39.2424 31.47 39.1525L39.47 34.1525C39.6213 34.0579 39.7952 34.0056 39.9736 34.0009C40.152 33.9961 40.3284 34.0393 40.4846 34.1257C40.6407 34.2122 40.7708 34.3389 40.8614 34.4926C40.9521 34.6464 40.9999 34.8215 41 35L41 45C40.9999 45.1785 40.9521 45.3537 40.8614 45.5074C40.7708 45.6611 40.6407 45.7878 40.4846 45.8743C40.3284 45.9607 40.152 46.0039 39.9736 45.9992C39.7952 45.9945 39.6213 45.9421 39.47 45.8475Z" fill="#737373"/>
</svg>
